<svg width="14" height="10" viewBox="0 0 14 10" fill="none" xmlns="http://www.w3.org/2000/svg">
<path d="M5.39616 9.27956C5.26489 9.27983 5.13487 9.25417 5.01354 9.20406C4.89222 9.15395 4.78198 9.08038 4.68916 8.98756L0.447159 4.74456C0.351586 4.65238 0.275328 4.54209 0.222834 4.42013C0.170341 4.29816 0.142664 4.16696 0.141417 4.03418C0.14017 3.9014 0.165379 3.76971 0.215573 3.64678C0.265767 3.52385 0.339941 3.41214 0.433766 3.31819C0.527592 3.22423 0.63919 3.1499 0.762049 3.09953C0.884908 3.04916 1.01657 3.02377 1.14935 3.02482C1.28213 3.02588 1.41336 3.05337 1.53541 3.1057C1.65745 3.15802 1.76784 3.23412 1.86016 3.32956L5.39516 6.86456L11.7602 0.501562C11.9477 0.313921 12.202 0.208453 12.4673 0.208359C12.7326 0.208265 12.987 0.313553 13.1747 0.501061C13.3623 0.68857 13.4678 0.942938 13.4679 1.20821C13.468 1.47348 13.3627 1.72792 13.1752 1.91556L6.10316 8.98756C6.01034 9.08038 5.9001 9.15395 5.77878 9.20406C5.65745 9.25417 5.52742 9.27983 5.39616 9.27956Z" fill="#2FAB73"/>
</svg>
